<mxfile host="Electron" agent="Mozilla/5.0 (Windows NT 10.0; Win64; x64) AppleWebKit/537.36 (KHTML, like Gecko) draw.io/28.2.5 Chrome/138.0.7204.251 Electron/37.6.1 Safari/537.36" version="28.2.5">
  <diagram name="Page-1" id="AqJMhy7XPEpWRPVMSrUd">
    <mxGraphModel dx="1003" dy="698" grid="1" gridSize="10" guides="1" tooltips="1" connect="1" arrows="1" fold="1" page="1" pageScale="1" pageWidth="850" pageHeight="1400" math="0" shadow="0">
      <root>
        <mxCell id="0" />
        <mxCell id="1" parent="0" />
        <mxCell id="xm2wVjFEznXlM4OiLxzm-1" value="Visiteur" style="shape=umlActor;verticalLabelPosition=bottom;verticalAlign=top;html=1;outlineConnect=0;" vertex="1" parent="1">
          <mxGeometry x="100" y="160" width="30" height="60" as="geometry" />
        </mxCell>
        <mxCell id="xm2wVjFEznXlM4OiLxzm-6" value="Consulter les formations" style="ellipse;whiteSpace=wrap;html=1;" vertex="1" parent="1">
          <mxGeometry x="230" y="70" width="140" height="70" as="geometry" />
        </mxCell>
        <mxCell id="xm2wVjFEznXlM4OiLxzm-7" value="Consulter les actualités&amp;nbsp;" style="ellipse;whiteSpace=wrap;html=1;" vertex="1" parent="1">
          <mxGeometry x="220" y="190" width="140" height="70" as="geometry" />
        </mxCell>
        <mxCell id="xm2wVjFEznXlM4OiLxzm-9" value="" style="endArrow=none;html=1;rounded=0;entryX=0;entryY=0.5;entryDx=0;entryDy=0;" edge="1" parent="1" target="xm2wVjFEznXlM4OiLxzm-6">
          <mxGeometry width="50" height="50" relative="1" as="geometry">
            <mxPoint x="140" y="200" as="sourcePoint" />
            <mxPoint x="190" y="150" as="targetPoint" />
          </mxGeometry>
        </mxCell>
        <mxCell id="xm2wVjFEznXlM4OiLxzm-10" value="" style="endArrow=none;html=1;rounded=0;entryX=0;entryY=0.5;entryDx=0;entryDy=0;" edge="1" parent="1" target="xm2wVjFEznXlM4OiLxzm-7">
          <mxGeometry width="50" height="50" relative="1" as="geometry">
            <mxPoint x="140" y="200" as="sourcePoint" />
            <mxPoint x="180" y="240" as="targetPoint" />
          </mxGeometry>
        </mxCell>
        <mxCell id="xm2wVjFEznXlM4OiLxzm-11" value="Etudiant" style="shape=umlActor;verticalLabelPosition=bottom;verticalAlign=top;html=1;outlineConnect=0;" vertex="1" parent="1">
          <mxGeometry x="100" y="340" width="30" height="60" as="geometry" />
        </mxCell>
        <mxCell id="xm2wVjFEznXlM4OiLxzm-12" value="S&#39;authentifier" style="ellipse;whiteSpace=wrap;html=1;" vertex="1" parent="1">
          <mxGeometry x="550" y="240" width="100" height="50" as="geometry" />
        </mxCell>
        <mxCell id="xm2wVjFEznXlM4OiLxzm-13" value="Acceder aux cours&amp;nbsp;" style="ellipse;whiteSpace=wrap;html=1;" vertex="1" parent="1">
          <mxGeometry x="210" y="470" width="140" height="70" as="geometry" />
        </mxCell>
        <mxCell id="xm2wVjFEznXlM4OiLxzm-14" value="Acceder notes" style="ellipse;whiteSpace=wrap;html=1;" vertex="1" parent="1">
          <mxGeometry x="360" y="510" width="140" height="70" as="geometry" />
        </mxCell>
        <mxCell id="xm2wVjFEznXlM4OiLxzm-16" value="Voir activité&amp;nbsp;" style="ellipse;whiteSpace=wrap;html=1;" vertex="1" parent="1">
          <mxGeometry x="530" y="430" width="140" height="70" as="geometry" />
        </mxCell>
        <mxCell id="xm2wVjFEznXlM4OiLxzm-17" value="Se connecter" style="ellipse;whiteSpace=wrap;html=1;" vertex="1" parent="1">
          <mxGeometry x="290" y="330" width="140" height="70" as="geometry" />
        </mxCell>
        <mxCell id="xm2wVjFEznXlM4OiLxzm-21" value="&amp;lt;&amp;lt;include&amp;gt;&amp;gt;" style="endArrow=open;endSize=12;dashed=1;html=1;rounded=0;entryX=0;entryY=0.5;entryDx=0;entryDy=0;" edge="1" parent="1" target="xm2wVjFEznXlM4OiLxzm-12">
          <mxGeometry width="160" relative="1" as="geometry">
            <mxPoint x="430" y="364.29" as="sourcePoint" />
            <mxPoint x="590" y="364.29" as="targetPoint" />
          </mxGeometry>
        </mxCell>
        <mxCell id="xm2wVjFEznXlM4OiLxzm-22" value="" style="endArrow=none;html=1;rounded=0;exitX=0.5;exitY=0;exitDx=0;exitDy=0;" edge="1" parent="1" source="xm2wVjFEznXlM4OiLxzm-13">
          <mxGeometry width="50" height="50" relative="1" as="geometry">
            <mxPoint x="310" y="450" as="sourcePoint" />
            <mxPoint x="360" y="400" as="targetPoint" />
          </mxGeometry>
        </mxCell>
        <mxCell id="xm2wVjFEznXlM4OiLxzm-23" value="" style="endArrow=none;html=1;rounded=0;exitX=0.5;exitY=0;exitDx=0;exitDy=0;" edge="1" parent="1" source="xm2wVjFEznXlM4OiLxzm-14">
          <mxGeometry width="50" height="50" relative="1" as="geometry">
            <mxPoint x="180" y="530" as="sourcePoint" />
            <mxPoint x="360" y="400" as="targetPoint" />
          </mxGeometry>
        </mxCell>
        <mxCell id="xm2wVjFEznXlM4OiLxzm-24" value="" style="endArrow=none;html=1;rounded=0;entryX=0.5;entryY=1;entryDx=0;entryDy=0;exitX=0;exitY=0.5;exitDx=0;exitDy=0;" edge="1" parent="1" source="xm2wVjFEznXlM4OiLxzm-16" target="xm2wVjFEznXlM4OiLxzm-17">
          <mxGeometry width="50" height="50" relative="1" as="geometry">
            <mxPoint x="550" y="520" as="sourcePoint" />
            <mxPoint x="600" y="470" as="targetPoint" />
          </mxGeometry>
        </mxCell>
        <mxCell id="xm2wVjFEznXlM4OiLxzm-25" value="" style="endArrow=none;html=1;rounded=0;entryX=0;entryY=0.5;entryDx=0;entryDy=0;" edge="1" parent="1" target="xm2wVjFEznXlM4OiLxzm-17">
          <mxGeometry width="50" height="50" relative="1" as="geometry">
            <mxPoint x="150" y="360" as="sourcePoint" />
            <mxPoint x="195" y="320" as="targetPoint" />
          </mxGeometry>
        </mxCell>
        <mxCell id="xm2wVjFEznXlM4OiLxzm-26" value="" style="shape=flexArrow;endArrow=classic;html=1;rounded=0;" edge="1" parent="1">
          <mxGeometry width="50" height="50" relative="1" as="geometry">
            <mxPoint x="114.28999999999999" y="330" as="sourcePoint" />
            <mxPoint x="114.28999999999999" y="250" as="targetPoint" />
          </mxGeometry>
        </mxCell>
        <mxCell id="xm2wVjFEznXlM4OiLxzm-29" value="" style="shape=flexArrow;endArrow=classic;html=1;rounded=0;" edge="1" parent="1">
          <mxGeometry width="50" height="50" relative="1" as="geometry">
            <mxPoint x="114.37" y="1150" as="sourcePoint" />
            <mxPoint x="114.46" y="880" as="targetPoint" />
          </mxGeometry>
        </mxCell>
        <mxCell id="xm2wVjFEznXlM4OiLxzm-30" value="Enseignant&amp;nbsp;" style="shape=umlActor;verticalLabelPosition=bottom;verticalAlign=top;html=1;outlineConnect=0;" vertex="1" parent="1">
          <mxGeometry x="100" y="720" width="30" height="60" as="geometry" />
        </mxCell>
        <mxCell id="xm2wVjFEznXlM4OiLxzm-31" value="Gérer les notes" style="ellipse;whiteSpace=wrap;html=1;" vertex="1" parent="1">
          <mxGeometry x="350" y="665" width="140" height="70" as="geometry" />
        </mxCell>
        <mxCell id="xm2wVjFEznXlM4OiLxzm-32" value="" style="endArrow=none;html=1;rounded=0;entryX=0;entryY=0.5;entryDx=0;entryDy=0;" edge="1" parent="1" target="xm2wVjFEznXlM4OiLxzm-31">
          <mxGeometry width="50" height="50" relative="1" as="geometry">
            <mxPoint x="140" y="760" as="sourcePoint" />
            <mxPoint x="250" y="680" as="targetPoint" />
          </mxGeometry>
        </mxCell>
        <mxCell id="xm2wVjFEznXlM4OiLxzm-33" value="" style="endArrow=none;html=1;rounded=0;entryX=0;entryY=0.5;entryDx=0;entryDy=0;" edge="1" parent="1" target="xm2wVjFEznXlM4OiLxzm-34">
          <mxGeometry width="50" height="50" relative="1" as="geometry">
            <mxPoint x="150" y="760" as="sourcePoint" />
            <mxPoint x="250" y="680" as="targetPoint" />
          </mxGeometry>
        </mxCell>
        <mxCell id="xm2wVjFEznXlM4OiLxzm-34" value="Gérer les cours" style="ellipse;whiteSpace=wrap;html=1;" vertex="1" parent="1">
          <mxGeometry x="355" y="810" width="140" height="70" as="geometry" />
        </mxCell>
        <mxCell id="xm2wVjFEznXlM4OiLxzm-35" value="supprimer note" style="ellipse;whiteSpace=wrap;html=1;" vertex="1" parent="1">
          <mxGeometry x="680" y="700" width="140" height="50" as="geometry" />
        </mxCell>
        <mxCell id="xm2wVjFEznXlM4OiLxzm-36" value="modifier note" style="ellipse;whiteSpace=wrap;html=1;" vertex="1" parent="1">
          <mxGeometry x="670" y="630" width="140" height="50" as="geometry" />
        </mxCell>
        <mxCell id="xm2wVjFEznXlM4OiLxzm-37" value="Ajouter note" style="ellipse;whiteSpace=wrap;html=1;" vertex="1" parent="1">
          <mxGeometry x="670" y="550" width="140" height="50" as="geometry" />
        </mxCell>
        <mxCell id="xm2wVjFEznXlM4OiLxzm-38" value="&amp;lt;&amp;lt;extend&amp;gt;&amp;gt;" style="endArrow=open;endSize=12;dashed=1;html=1;rounded=0;entryX=0;entryY=0.5;entryDx=0;entryDy=0;" edge="1" parent="1" target="xm2wVjFEznXlM4OiLxzm-37">
          <mxGeometry width="160" relative="1" as="geometry">
            <mxPoint x="430" y="665" as="sourcePoint" />
            <mxPoint x="550" y="565.36" as="targetPoint" />
          </mxGeometry>
        </mxCell>
        <mxCell id="xm2wVjFEznXlM4OiLxzm-40" value="&amp;lt;&amp;lt;extend&amp;gt;&amp;gt;" style="endArrow=open;endSize=12;dashed=1;html=1;rounded=0;entryX=0;entryY=0.5;entryDx=0;entryDy=0;" edge="1" parent="1" target="xm2wVjFEznXlM4OiLxzm-36">
          <mxGeometry width="160" relative="1" as="geometry">
            <mxPoint x="500" y="690" as="sourcePoint" />
            <mxPoint x="550" y="650" as="targetPoint" />
          </mxGeometry>
        </mxCell>
        <mxCell id="xm2wVjFEznXlM4OiLxzm-41" value="&amp;lt;&amp;lt;extend&amp;gt;&amp;gt;" style="endArrow=open;endSize=12;dashed=1;html=1;rounded=0;entryX=0;entryY=0.5;entryDx=0;entryDy=0;exitX=1;exitY=0.5;exitDx=0;exitDy=0;" edge="1" parent="1" source="xm2wVjFEznXlM4OiLxzm-31" target="xm2wVjFEznXlM4OiLxzm-35">
          <mxGeometry width="160" relative="1" as="geometry">
            <mxPoint x="510" y="700" as="sourcePoint" />
            <mxPoint x="650" y="675" as="targetPoint" />
          </mxGeometry>
        </mxCell>
        <mxCell id="xm2wVjFEznXlM4OiLxzm-42" value="Ajouter cours" style="ellipse;whiteSpace=wrap;html=1;" vertex="1" parent="1">
          <mxGeometry x="680" y="820" width="140" height="50" as="geometry" />
        </mxCell>
        <mxCell id="xm2wVjFEznXlM4OiLxzm-43" value="supprimer cours" style="ellipse;whiteSpace=wrap;html=1;" vertex="1" parent="1">
          <mxGeometry x="680" y="910" width="140" height="50" as="geometry" />
        </mxCell>
        <mxCell id="xm2wVjFEznXlM4OiLxzm-44" value="&amp;lt;&amp;lt;extend&amp;gt;&amp;gt;" style="endArrow=open;endSize=12;dashed=1;html=1;rounded=0;entryX=0;entryY=0.5;entryDx=0;entryDy=0;exitX=1;exitY=0.5;exitDx=0;exitDy=0;" edge="1" parent="1" target="xm2wVjFEznXlM4OiLxzm-42">
          <mxGeometry width="160" relative="1" as="geometry">
            <mxPoint x="495" y="845" as="sourcePoint" />
            <mxPoint x="685" y="870" as="targetPoint" />
          </mxGeometry>
        </mxCell>
        <mxCell id="xm2wVjFEznXlM4OiLxzm-45" value="&amp;lt;&amp;lt;extend&amp;gt;&amp;gt;" style="endArrow=open;endSize=12;dashed=1;html=1;rounded=0;entryX=0;entryY=0.5;entryDx=0;entryDy=0;exitX=1;exitY=0.5;exitDx=0;exitDy=0;" edge="1" parent="1" target="xm2wVjFEznXlM4OiLxzm-43">
          <mxGeometry width="160" relative="1" as="geometry">
            <mxPoint x="495" y="845" as="sourcePoint" />
            <mxPoint x="685" y="870" as="targetPoint" />
          </mxGeometry>
        </mxCell>
        <mxCell id="xm2wVjFEznXlM4OiLxzm-46" value="Administrateur&amp;nbsp;" style="shape=umlActor;verticalLabelPosition=bottom;verticalAlign=top;html=1;" vertex="1" parent="1">
          <mxGeometry x="100" y="1200" width="30" height="60" as="geometry" />
        </mxCell>
        <mxCell id="xm2wVjFEznXlM4OiLxzm-48" value="" style="shape=flexArrow;endArrow=classic;html=1;rounded=0;" edge="1" parent="1">
          <mxGeometry width="50" height="50" relative="1" as="geometry">
            <mxPoint x="114.37" y="710" as="sourcePoint" />
            <mxPoint x="114.46" y="440" as="targetPoint" />
          </mxGeometry>
        </mxCell>
        <mxCell id="xm2wVjFEznXlM4OiLxzm-50" value="" style="endArrow=none;html=1;rounded=0;entryX=0;entryY=0.5;entryDx=0;entryDy=0;" edge="1" parent="1" target="xm2wVjFEznXlM4OiLxzm-52">
          <mxGeometry width="50" height="50" relative="1" as="geometry">
            <mxPoint x="140.66" y="1228.57" as="sourcePoint" />
            <mxPoint x="350.00023478902466" y="1140.0029775892588" as="targetPoint" />
          </mxGeometry>
        </mxCell>
        <mxCell id="xm2wVjFEznXlM4OiLxzm-52" value="Ajouter/Supprimer un compte" style="ellipse;whiteSpace=wrap;html=1;" vertex="1" parent="1">
          <mxGeometry x="355" y="1010" width="140" height="70" as="geometry" />
        </mxCell>
        <mxCell id="xm2wVjFEznXlM4OiLxzm-53" value="Créer/modifier&lt;div&gt;&amp;nbsp;une filière&amp;nbsp;&lt;/div&gt;" style="ellipse;whiteSpace=wrap;html=1;" vertex="1" parent="1">
          <mxGeometry x="600" y="1050" width="140" height="70" as="geometry" />
        </mxCell>
        <mxCell id="xm2wVjFEznXlM4OiLxzm-54" value="Valider et publier les informations" style="ellipse;whiteSpace=wrap;html=1;" vertex="1" parent="1">
          <mxGeometry x="590" y="1250" width="140" height="70" as="geometry" />
        </mxCell>
        <mxCell id="xm2wVjFEznXlM4OiLxzm-56" value="Maintenance du système&amp;nbsp;" style="ellipse;whiteSpace=wrap;html=1;" vertex="1" parent="1">
          <mxGeometry x="690" y="1150" width="140" height="70" as="geometry" />
        </mxCell>
        <mxCell id="xm2wVjFEznXlM4OiLxzm-57" value="Suivi académique &amp;amp;&lt;div&gt;sécurité&lt;/div&gt;" style="ellipse;whiteSpace=wrap;html=1;" vertex="1" parent="1">
          <mxGeometry x="380" y="1320" width="140" height="70" as="geometry" />
        </mxCell>
        <mxCell id="xm2wVjFEznXlM4OiLxzm-58" value="" style="endArrow=none;html=1;rounded=0;entryX=0;entryY=0.5;entryDx=0;entryDy=0;" edge="1" parent="1" target="xm2wVjFEznXlM4OiLxzm-53">
          <mxGeometry width="50" height="50" relative="1" as="geometry">
            <mxPoint x="140" y="1230" as="sourcePoint" />
            <mxPoint x="365" y="1055" as="targetPoint" />
          </mxGeometry>
        </mxCell>
        <mxCell id="xm2wVjFEznXlM4OiLxzm-59" value="" style="endArrow=none;html=1;rounded=0;entryX=0;entryY=0.5;entryDx=0;entryDy=0;" edge="1" parent="1" target="xm2wVjFEznXlM4OiLxzm-56">
          <mxGeometry width="50" height="50" relative="1" as="geometry">
            <mxPoint x="140" y="1230" as="sourcePoint" />
            <mxPoint x="630" y="1210" as="targetPoint" />
          </mxGeometry>
        </mxCell>
        <mxCell id="xm2wVjFEznXlM4OiLxzm-60" value="" style="endArrow=none;html=1;rounded=0;entryX=0;entryY=0.5;entryDx=0;entryDy=0;" edge="1" parent="1" target="xm2wVjFEznXlM4OiLxzm-54">
          <mxGeometry width="50" height="50" relative="1" as="geometry">
            <mxPoint x="150" y="1230" as="sourcePoint" />
            <mxPoint x="700" y="1195" as="targetPoint" />
          </mxGeometry>
        </mxCell>
        <mxCell id="xm2wVjFEznXlM4OiLxzm-61" value="" style="endArrow=none;html=1;rounded=0;entryX=0;entryY=0.5;entryDx=0;entryDy=0;" edge="1" parent="1" target="xm2wVjFEznXlM4OiLxzm-57">
          <mxGeometry width="50" height="50" relative="1" as="geometry">
            <mxPoint x="140" y="1230" as="sourcePoint" />
            <mxPoint x="710" y="1205" as="targetPoint" />
          </mxGeometry>
        </mxCell>
        <mxCell id="xm2wVjFEznXlM4OiLxzm-62" value="" style="html=1;whiteSpace=wrap;fillColor=none;" vertex="1" parent="1">
          <mxGeometry x="160" y="10" width="670" height="1380" as="geometry" />
        </mxCell>
        <mxCell id="xm2wVjFEznXlM4OiLxzm-63" value="PROJET KAELIS" style="text;align=center;fontStyle=1;verticalAlign=middle;spacingLeft=3;spacingRight=3;strokeColor=none;rotatable=0;points=[[0,0.5],[1,0.5]];portConstraint=eastwest;html=1;" vertex="1" parent="1">
          <mxGeometry x="200" y="20" width="80" height="26" as="geometry" />
        </mxCell>
      </root>
    </mxGraphModel>
  </diagram>
</mxfile>
